<?xml version="1.0" encoding="UTF-8"?>
<svg xmlns="http://www.w3.org/2000/svg" xmlns:xlink="http://www.w3.org/1999/xlink" width="16px" height="16px" viewBox="0 0 16 16" version="1.1">
<g id="surface1">
<path style=" stroke:none;fill-rule:nonzero;fill:rgb(89.803922%,87.058824%,75.686275%);fill-opacity:1;" d="M 2.75 7 L 8.738281 3.175781 C 10.601562 3.785156 12.101562 5.183594 12.839844 7 Z M 2.75 7 "/>
<path style=" stroke:none;fill-rule:nonzero;fill:rgb(94.509804%,92.941176%,84.705882%);fill-opacity:1;" d="M 2.75 6.996094 L 12.839844 6.996094 L 12.839844 12.96875 L 2.75 12.96875 Z M 2.75 6.996094 "/>
<path style=" stroke:none;fill-rule:nonzero;fill:rgb(91.764706%,33.72549%,22.745098%);fill-opacity:1;" d="M 2.75 9.472656 L 12.839844 9.472656 L 12.839844 11.421875 L 2.75 11.421875 Z M 2.75 9.472656 "/>
<path style=" stroke:none;fill-rule:nonzero;fill:rgb(38.039216%,40.784314%,20.392157%);fill-opacity:1;" d="M 13.90625 3.550781 L 12.242188 3.125 C 11.753906 3.699219 11.054688 4.046875 10.300781 4.089844 L 10.160156 4.097656 L 9.671875 5.527344 L 11.082031 6.070312 L 11.179688 5.964844 C 11.691406 5.417969 12.410156 5.105469 13.164062 5.097656 Z M 13.90625 3.550781 "/>
<path style=" stroke:none;fill-rule:nonzero;fill:rgb(55.294118%,57.647059%,30.588235%);fill-opacity:1;" d="M 13.992188 3.511719 C 13.980469 3.488281 13.960938 3.46875 13.9375 3.460938 C 13.914062 3.453125 13.890625 3.453125 13.867188 3.464844 L 11.507812 4.566406 C 11.675781 4.34375 11.769531 4.078125 11.78125 3.800781 C 11.78125 3.777344 11.773438 3.753906 11.753906 3.738281 C 11.734375 3.71875 11.710938 3.710938 11.6875 3.710938 C 11.660156 3.714844 11.636719 3.722656 11.621094 3.742188 C 11.605469 3.761719 11.59375 3.785156 11.597656 3.808594 C 11.597656 3.914062 11.578125 4.015625 11.539062 4.113281 L 11.414062 4.375 C 11.335938 4.503906 11.242188 4.625 11.140625 4.738281 L 10.308594 5.125 L 9.632812 5.441406 C 9.582031 5.449219 9.550781 5.5 9.5625 5.550781 C 9.570312 5.601562 9.621094 5.636719 9.671875 5.625 C 9.6875 5.625 9.699219 5.621094 9.710938 5.617188 L 10.367188 5.308594 C 10.464844 5.308594 10.953125 5.328125 11.269531 5.613281 C 11.308594 5.648438 11.367188 5.644531 11.402344 5.605469 C 11.4375 5.566406 11.433594 5.507812 11.394531 5.472656 C 11.195312 5.308594 10.953125 5.195312 10.695312 5.15625 L 11.820312 4.632812 C 11.960938 4.621094 12.101562 4.625 12.238281 4.644531 L 12.507812 4.710938 C 12.660156 4.753906 12.808594 4.820312 12.949219 4.902344 C 12.960938 4.914062 12.980469 4.917969 13 4.917969 C 13.03125 4.917969 13.058594 4.902344 13.078125 4.875 C 13.101562 4.832031 13.089844 4.777344 13.046875 4.75 C 12.792969 4.597656 12.503906 4.496094 12.207031 4.457031 L 13.957031 3.640625 C 13.980469 3.628906 13.996094 3.605469 14.003906 3.582031 C 14.007812 3.558594 14.003906 3.53125 13.992188 3.511719 Z M 13.992188 3.511719 "/>
<path style=" stroke:none;fill-rule:nonzero;fill:rgb(91.764706%,33.72549%,22.745098%);fill-opacity:1;" d="M 9.21875 3.367188 C 9.351562 3.160156 9.578125 3.03125 9.824219 3.03125 C 10.070312 3.03125 10.300781 3.160156 10.429688 3.367188 C 10.71875 3.820312 11.007812 4.390625 11.046875 4.878906 C 11.113281 5.726562 10.203125 5.761719 9.914062 5.753906 C 9.855469 5.753906 9.796875 5.753906 9.738281 5.753906 C 9.449219 5.765625 8.539062 5.726562 8.605469 4.878906 C 8.640625 4.390625 8.933594 3.820312 9.21875 3.367188 Z M 9.21875 3.367188 "/>
<path style=" stroke:none;fill-rule:nonzero;fill:rgb(33.333333%,24.705882%,2.745098%);fill-opacity:1;" d="M 9.195312 5.179688 C 9.179688 5.179688 9.164062 5.175781 9.148438 5.167969 L 8.960938 5.058594 C 8.917969 5.03125 8.902344 4.976562 8.925781 4.933594 C 8.953125 4.890625 9.007812 4.875 9.050781 4.898438 L 9.238281 5.007812 C 9.277344 5.027344 9.292969 5.070312 9.28125 5.113281 C 9.273438 5.152344 9.234375 5.183594 9.191406 5.183594 Z M 9.195312 5.179688 "/>
<path style=" stroke:none;fill-rule:nonzero;fill:rgb(33.333333%,24.705882%,2.745098%);fill-opacity:1;" d="M 9.488281 4.910156 C 9.46875 4.910156 9.449219 4.902344 9.429688 4.890625 C 9.394531 4.855469 9.390625 4.800781 9.417969 4.765625 L 9.601562 4.546875 C 9.636719 4.503906 9.695312 4.5 9.734375 4.535156 C 9.773438 4.570312 9.78125 4.628906 9.746094 4.671875 L 9.5625 4.875 C 9.542969 4.898438 9.519531 4.910156 9.488281 4.910156 Z M 9.488281 4.910156 "/>
<path style=" stroke:none;fill-rule:nonzero;fill:rgb(33.333333%,24.705882%,2.745098%);fill-opacity:1;" d="M 9.53125 4.40625 C 9.507812 4.40625 9.484375 4.398438 9.46875 4.382812 L 9.351562 4.277344 C 9.316406 4.246094 9.3125 4.191406 9.339844 4.152344 C 9.375 4.117188 9.429688 4.113281 9.464844 4.144531 L 9.589844 4.246094 C 9.625 4.28125 9.628906 4.335938 9.601562 4.371094 C 9.582031 4.394531 9.558594 4.40625 9.53125 4.40625 Z M 9.53125 4.40625 "/>
<path style=" stroke:none;fill-rule:nonzero;fill:rgb(33.333333%,24.705882%,2.745098%);fill-opacity:1;" d="M 9.828125 4.035156 C 9.804688 4.035156 9.789062 4.03125 9.769531 4.019531 C 9.734375 3.988281 9.722656 3.933594 9.75 3.894531 L 9.847656 3.757812 C 9.878906 3.714844 9.9375 3.703125 9.976562 3.734375 C 10.019531 3.765625 10.03125 3.820312 10 3.863281 L 9.902344 4 C 9.882812 4.023438 9.855469 4.035156 9.828125 4.035156 Z M 9.828125 4.035156 "/>
<path style=" stroke:none;fill-rule:nonzero;fill:rgb(33.333333%,24.705882%,2.745098%);fill-opacity:1;" d="M 10.425781 5.265625 C 10.398438 5.265625 10.375 5.257812 10.359375 5.234375 L 10.234375 5.09375 C 10.203125 5.054688 10.207031 5.003906 10.238281 4.96875 C 10.277344 4.9375 10.332031 4.941406 10.363281 4.976562 L 10.488281 5.117188 C 10.507812 5.136719 10.515625 5.160156 10.515625 5.183594 C 10.515625 5.210938 10.507812 5.234375 10.488281 5.25 C 10.472656 5.261719 10.449219 5.269531 10.425781 5.265625 Z M 10.425781 5.265625 "/>
<path style=" stroke:none;fill-rule:nonzero;fill:rgb(33.333333%,24.705882%,2.745098%);fill-opacity:1;" d="M 9.828125 5.46875 C 9.8125 5.46875 9.800781 5.464844 9.785156 5.460938 L 9.535156 5.347656 C 9.511719 5.335938 9.496094 5.316406 9.488281 5.292969 C 9.480469 5.269531 9.480469 5.246094 9.492188 5.222656 C 9.5 5.199219 9.519531 5.179688 9.542969 5.171875 C 9.566406 5.164062 9.59375 5.167969 9.617188 5.175781 L 9.867188 5.289062 C 9.890625 5.300781 9.90625 5.320312 9.914062 5.34375 C 9.921875 5.367188 9.921875 5.390625 9.910156 5.414062 C 9.898438 5.449219 9.863281 5.46875 9.828125 5.46875 Z M 9.828125 5.46875 "/>
<path style=" stroke:none;fill-rule:nonzero;fill:rgb(33.333333%,24.705882%,2.745098%);fill-opacity:1;" d="M 10.238281 4.632812 C 10.195312 4.632812 10.160156 4.605469 10.148438 4.5625 C 10.136719 4.523438 10.15625 4.480469 10.191406 4.457031 L 10.441406 4.3125 C 10.484375 4.289062 10.539062 4.300781 10.566406 4.34375 C 10.589844 4.390625 10.574219 4.445312 10.535156 4.46875 L 10.285156 4.617188 C 10.269531 4.625 10.253906 4.632812 10.238281 4.632812 Z M 10.238281 4.632812 "/>
<path style=" stroke:none;fill-rule:nonzero;fill:rgb(33.333333%,24.705882%,2.745098%);fill-opacity:1;" d="M 10.554688 4.273438 C 10.542969 4.273438 10.535156 4.273438 10.523438 4.273438 L 10.273438 4.183594 C 10.25 4.175781 10.230469 4.160156 10.21875 4.136719 C 10.210938 4.117188 10.207031 4.089844 10.214844 4.066406 C 10.222656 4.042969 10.242188 4.019531 10.265625 4.011719 C 10.289062 4 10.316406 4 10.339844 4.007812 L 10.589844 4.097656 C 10.617188 4.105469 10.636719 4.121094 10.648438 4.144531 C 10.660156 4.167969 10.660156 4.195312 10.648438 4.222656 C 10.632812 4.257812 10.59375 4.277344 10.554688 4.273438 Z M 10.554688 4.273438 "/>
<path style=" stroke:none;fill-rule:nonzero;fill:rgb(33.333333%,24.705882%,2.745098%);fill-opacity:1;" d="M 9.582031 3.640625 C 9.535156 3.644531 9.496094 3.613281 9.488281 3.566406 C 9.480469 3.523438 9.503906 3.480469 9.546875 3.464844 L 9.789062 3.363281 C 9.820312 3.347656 9.859375 3.351562 9.890625 3.371094 C 9.917969 3.390625 9.933594 3.425781 9.925781 3.460938 C 9.921875 3.496094 9.894531 3.527344 9.859375 3.535156 L 9.609375 3.636719 C 9.601562 3.640625 9.589844 3.640625 9.582031 3.640625 Z M 9.582031 3.640625 "/>
<path style=" stroke:none;fill-rule:nonzero;fill:rgb(33.333333%,24.705882%,2.745098%);fill-opacity:1;" d="M 10.722656 5.070312 C 10.683594 5.070312 10.652344 5.046875 10.636719 5.015625 L 10.566406 4.855469 C 10.550781 4.824219 10.550781 4.785156 10.570312 4.753906 C 10.59375 4.726562 10.628906 4.710938 10.664062 4.714844 C 10.699219 4.71875 10.726562 4.746094 10.738281 4.78125 L 10.808594 4.941406 C 10.816406 4.964844 10.820312 4.988281 10.808594 5.011719 C 10.800781 5.035156 10.78125 5.054688 10.757812 5.066406 C 10.746094 5.070312 10.734375 5.070312 10.722656 5.070312 Z M 10.722656 5.070312 "/>
</g>
</svg>
